<?xml version="1.0" standalone="no"?>
<!DOCTYPE svg PUBLIC "-//W3C//DTD SVG 20010904//EN"
 "http://www.w3.org/TR/2001/REC-SVG-20010904/DTD/svg10.dtd">
<svg version="1.0" xmlns="http://www.w3.org/2000/svg"
 width="260.000000pt" height="260.000000pt" viewBox="0 0 260.000000 260.000000"
 preserveAspectRatio="xMidYMid meet">
<metadata>
Created by potrace 1.11, written by Peter Selinger 2001-2013
</metadata>
<g transform="translate(0.000000,260.000000) scale(0.100000,-0.100000)"
fill="#000000" stroke="none">
<path d="M60 1300 l0 -1230 1235 0 1235 0 0 528 c-1 461 -3 522 -15 488 -7
-21 -31 -56 -52 -78 -59 -61 -99 -68 -365 -68 l-228 0 0 395 0 395 218 0 c126
0 234 -5 257 -11 86 -24 145 -98 145 -184 0 -60 -19 -103 -63 -142 -34 -29
-35 -32 -16 -38 31 -10 90 -66 105 -100 11 -25 13 74 14 623 l0 652 -1235 0
-1235 0 0 -1230z m1448 415 c151 -45 232 -200 220 -421 -10 -161 -65 -264
-173 -319 l-58 -30 -214 -3 -213 -3 0 395 0 396 193 0 c144 0 206 -4 245 -15z"/>
<path d="M1230 1335 l0 -268 108 5 c128 5 162 20 194 81 27 52 37 220 19 303
-24 105 -69 134 -218 142 l-103 5 0 -268z"/>
<path d="M2030 1509 l0 -91 124 3 c115 4 126 6 150 28 18 17 26 35 26 58 0 76
-34 93 -191 93 l-109 0 0 -91z"/>
<path d="M2030 1180 l0 -110 113 0 c176 0 217 20 217 107 0 87 -52 112 -232
113 l-98 0 0 -110z"/>
</g>
</svg>
